<svg width="180" height="37" viewBox="0 0 180 37" fill="none" xmlns="http://www.w3.org/2000/svg">
<g clip-path="url(#clip0_885_670)">
<path d="M41.7666 9.89445C39.1789 9.89445 36.6493 10.6618 34.4977 12.0994C32.3462 13.5371 30.6692 15.5804 29.6789 17.9712C28.6887 20.3619 28.4296 22.9925 28.9344 25.5305C29.4392 28.0685 30.6853 30.3997 32.5151 32.2295C34.3449 34.0593 36.6761 35.3054 39.2141 35.8102C41.7521 36.315 44.3827 36.0559 46.7735 35.0657C49.1642 34.0754 51.2075 32.3985 52.6452 30.2469C54.0828 28.0953 54.8502 25.5657 54.8502 22.978C54.8502 19.508 53.4717 16.1802 51.0181 13.7265C48.5644 11.2729 45.2366 9.89445 41.7666 9.89445V9.89445ZM41.7666 32.4364C36.7785 32.4364 32.7171 27.9661 32.7171 22.978C32.7171 17.9899 36.7785 13.5197 41.7666 13.5197C46.7547 13.5197 50.8161 17.9899 50.8161 22.978C50.8161 27.9661 46.7465 32.4364 41.7666 32.4364Z" fill="#09D674"/>
<path d="M77.8473 30.6101C77.8473 31.7549 77.1658 32.4364 76.3208 32.4364C75.4759 32.4364 74.7944 31.7549 74.7944 30.6101V15.4005C74.7944 13.9402 74.2143 12.5397 73.1818 11.5071C72.1492 10.4745 70.7487 9.89445 69.2884 9.89445C67.8281 9.89445 66.4277 10.4745 65.3951 11.5071C64.3625 12.5397 63.7824 13.9402 63.7824 15.4005V30.6101C63.7824 31.7549 63.101 32.4364 62.256 32.4364C61.411 32.4364 60.7296 31.7549 60.7296 30.6101V10.2761H56.7773V30.5556C56.7773 31.2787 56.9197 31.9946 57.1964 32.6627C57.4731 33.3307 57.8787 33.9376 58.3899 34.4489C58.9012 34.9602 59.5082 35.3658 60.1762 35.6425C60.8442 35.9192 61.5602 36.0616 62.2833 36.0616C63.0063 36.0616 63.7223 35.9192 64.3903 35.6425C65.0583 35.3658 65.6653 34.9602 66.1766 34.4489C66.6879 33.9376 67.0934 33.3307 67.3702 32.6627C67.6469 31.9946 67.7893 31.2787 67.7893 30.5556V15.3459C67.7893 14.2011 68.4707 13.5197 69.3157 13.5197C70.1607 13.5197 70.8421 14.2011 70.8421 15.3459V30.5556C70.8421 32.0159 71.4222 33.4164 72.4548 34.4489C73.4874 35.4815 74.8878 36.0616 76.3481 36.0616C77.8084 36.0616 79.2089 35.4815 80.2414 34.4489C81.274 33.4164 81.8541 32.0159 81.8541 30.5556V10.2761H77.9018L77.8473 30.6101Z" fill="#09D674"/>
<path d="M26.467 0H22.3784V35.6255H26.467V0Z" fill="#09D674"/>
<path d="M0 35.6255H4.08862V19.7889H17.1449V15.8366H4.08862V3.95233H19.7889V0H0V35.6255Z" fill="#09D674"/>
<path d="M104.366 34.1209C105.959 33.4077 107.316 32.2539 108.275 30.7955C109.071 29.5071 109.527 28.0378 109.6 26.5252C109.673 25.0126 109.362 23.5061 108.695 22.1467C108.103 20.9516 107.256 19.901 106.214 19.0693C105.225 18.2702 104.044 17.744 102.788 17.5429L101.673 17.3657L102.747 17.0141C104.461 16.4872 105.987 15.4786 107.144 14.1085C108.234 12.7865 108.793 11.0829 108.793 9.04402C108.813 7.47224 108.384 5.92731 107.558 4.59015C106.65 3.20392 105.358 2.11191 103.84 1.44737C102.177 0.667808 100.138 0.272575 97.7725 0.272575H85.2613V35.3475H98.274C100.607 35.3475 102.657 34.9331 104.366 34.1209ZM89.3744 15.3814V3.55982H97.3636C99.6669 3.55982 101.452 4.10497 102.701 5.15983C103.949 6.2147 104.587 7.72749 104.587 9.60825C104.587 11.489 103.952 12.9854 102.701 14.0567C101.449 15.1279 99.7023 15.6539 97.4645 15.6539H89.3663L89.3744 15.3814ZM89.647 32.0575H89.3744V18.9439H97.7207C100.057 18.9439 101.956 19.5409 103.363 20.7211C104.769 21.9014 105.505 23.5559 105.505 25.6056C105.505 27.6554 104.819 29.2227 103.467 30.3621C102.115 31.5014 100.245 32.0602 97.8733 32.0602L89.647 32.0575Z" fill="#09D674"/>
<path d="M128.066 11.3527C126.433 10.4893 124.609 10.0515 122.762 10.0798C119.764 10.0798 117.294 10.9221 115.403 12.582C113.511 14.242 112.418 16.3763 112.034 19.0257H115.866C116.19 17.3058 116.934 15.9347 118.082 14.9562C119.23 13.9776 120.764 13.4488 122.571 13.4488C124.569 13.4488 126.161 14.1003 127.306 15.3841C128.451 16.6679 129.053 18.4288 129.116 20.6339V20.7729H121.195C117.987 20.7729 115.52 21.5143 113.863 22.9753C113.06 23.6652 112.421 24.5244 111.99 25.4911C111.56 26.4578 111.35 27.5079 111.374 28.5658C111.354 29.9084 111.723 31.2281 112.437 32.3655C113.165 33.4969 114.191 34.4053 115.403 34.9904C116.748 35.6412 118.226 35.9679 119.72 35.9444C121.648 35.9608 123.547 35.4741 125.229 34.5325C126.889 33.5975 128.113 32.4064 128.865 30.989L129.121 30.5065V35.481H133.079V20.822C133.079 18.5841 132.627 16.6352 131.735 15.0352C130.892 13.48 129.618 12.2012 128.066 11.3527V11.3527ZM129.121 24.0493V24.4636C129.159 26.0101 128.724 27.5313 127.876 28.8248C127.073 30.0186 125.964 30.9743 124.665 31.5914C123.38 32.2064 121.973 32.5259 120.549 32.5263C118.954 32.5263 117.679 32.1338 116.752 31.3651C116.296 30.9952 115.932 30.525 115.687 29.9912C115.443 29.4575 115.325 28.8746 115.343 28.2878C115.322 27.6767 115.446 27.0693 115.703 26.5145C115.96 25.9598 116.343 25.473 116.823 25.0932C117.796 24.3082 119.276 23.9102 121.184 23.9102H129.11L129.121 24.0493Z" fill="#09D674"/>
<path d="M147.85 10.0335C146.235 10.0161 144.639 10.3744 143.186 11.0802C141.824 11.7407 140.671 12.764 139.853 14.0376L139.602 14.4301V10.4941H135.679V35.4837H139.602V21.6506C139.602 18.9848 140.272 16.9214 141.597 15.5204C142.922 14.1194 144.732 13.4025 146.975 13.4025C149.218 13.4025 150.954 14.0921 152.236 15.4495C153.517 16.8069 154.163 18.7858 154.163 21.329V35.4837H158.039V20.7293C158.039 17.2812 157.09 14.6073 155.223 12.7837C153.356 10.9602 150.87 10.0335 147.85 10.0335Z" fill="#09D674"/>
<path d="M174.66 35.4837H180L168.277 23.0353L168.187 22.9426L168.277 22.8499L179.951 10.4941H174.478L164.79 21.6479L164.55 21.9259V21.5606V1.64362H160.628V35.4837H164.55V24.4636V24.1065L164.79 24.3736L174.66 35.4837Z" fill="#09D674"/>
</g>
<defs>
<clipPath id="clip0_885_670">
<rect width="180" height="36.0616" fill="white"/>
</clipPath>
</defs>
</svg>
